<svg height="308" id="164061404294216043" width="560" version="1.1" 
		xmlns:dc="http://purl.org/dc/elements/1.1/"
		xmlns:cc="http://creativecommons.org/ns#"
		xmlns:rdf="http://www.w3.org/1999/02/22-rdf-syntax-ns#"
		xmlns:svg="http://www.w3.org/2000/svg"
		xmlns="http://www.w3.org/2000/svg"
		xmlns:sodipodi="http://sodipodi.sourceforge.net/DTD/sodipodi-0.dtd"
		xmlns:inkscape="http://www.inkscape.org/namespaces/inkscape"
		viewBox="0 0 560 308" style="color:white; width: 560px; height: 308px;transition: 0.3s;border-radius: 5px; position: absolute; top: 50%;font-size:48px; left: 50%; transform: translate(-50%, -50%) scale(0.5); z-index: 0; cursor: pointer;"><defs><style type="text/css">@import url("https://fonts.googleapis.com/css2?family=Cherry+Swash:wght@700 ");</style></defs><defs><style type="text/css">@import url("https://fonts.googleapis.com/css2?family=Nova+Oval ");</style></defs><style>.mytextnew164061404294216043{text-align:center;font-family: 'Cherry Swash', cursive;}.mytextnew2164061404294216043{text-align:center;font-family: 'Nova Oval', cursive;}</style><g id="164061404294216043" featurekey="nameFeature-0" fill="#164061404294216043"  transform="translate(62.5,84) scale(1.0606060606061)">
  <defs
     id="defs979" />
  <sodipodi:namedview
     id="base"
     pagecolor="#ffffff"
     bordercolor="#666666"
     borderopacity="1.0"
     inkscape:pageopacity="0.0"
     inkscape:pageshadow="2"
     inkscape:zoom="1.1575153"
     inkscape:cx="216.09698"
     inkscape:cy="251.45479"
     inkscape:document-units="mm"
     inkscape:current-layer="layer1"
     inkscape:document-rotation="0"
     showgrid="false"
     units="px"
     inkscape:showpageshadow="false"
     inkscape:window-width="1624"
     inkscape:window-height="1228"
     inkscape:window-x="486"
     inkscape:window-y="154"
     inkscape:window-maximized="0" />
  <metadata
     id="metadata982">
    <rdf:RDF>
      <cc:Work
         rdf:about="">
        <dc:format>image/svg+xml</dc:format>
        <dc:type
           rdf:resource="http://purl.org/dc/dcmitype/StillImage" />
        <dc:title></dc:title>
      </cc:Work>
    </rdf:RDF>
  </metadata>
  <g
     inkscape:label="Layer 1"
     inkscape:groupmode="layer"
     id="layer1">
    <path
       id="path76"
       style="fill-opacity:1;fill-rule:nonzero;stroke:none;stroke-width:0.0312885"
       d="m 47.329498,15.29245 c 0.438042,-0.198996 0.916757,-0.399868 1.404858,-0.595735 0.491229,-0.194303 1.007492,-0.344487 1.492466,-0.506248 0.822887,-0.263451 1.417372,-0.293175 0.935526,-0.04943 -0.510003,0.257192 -1.107616,0.503745 -1.745902,0.725269 -0.638288,0.22121 -1.298476,0.473395 -1.964922,0.655495 -0.647674,0.159885 -0.791601,0.07446 -0.122026,-0.229344 z M 13.560989,39.062382 c -0.388917,0.493734 -0.727773,1.155799 -1.102611,1.893272 -0.184601,0.370142 -0.37202,0.762189 -0.562881,1.169566 -0.170835,0.415825 -0.347616,0.846043 -0.527838,1.285022 -0.179596,0.439916 -0.362948,0.888909 -0.548177,1.341969 -0.172712,0.45775 -0.34699,0.919883 -0.521267,1.381388 -0.177094,0.460569 -0.3601321,0.918321 -0.550679,1.367939 -0.1858541,0.45118 -0.3519964,0.902361 -0.5431703,1.335083 0.2991192,-1.397973 0.7115025,-2.598517 1.0522353,-3.674532 0.364512,-1.06788 0.768135,-1.973684 1.122948,-2.767474 0.364512,-0.789725 0.765945,-1.43333 1.122322,-1.985259 0.362947,-0.549116 0.709625,-0.994353 1.081959,-1.337588 0.224025,-0.714632 0.429904,-1.357298 0.6289,-1.951156 0.197431,-0.594796 0.429279,-1.118253 0.642041,-1.631386 0.219647,-0.509065 0.437414,-0.998106 0.684595,-1.480889 0.26032,-0.474647 0.538789,-0.949922 0.850424,-1.448973 0.605433,-1.010934 1.428322,-2.058789 2.50152,-3.39043 0.563195,-0.643606 1.195225,-1.354796 1.92112,-2.145146 0.378591,-0.380156 0.779085,-0.782528 1.204609,-1.209616 0.428654,-0.424898 0.872952,-0.877331 1.379827,-1.322255 2.409219,-3.162962 5.525563,-6.098456 9.029883,-8.59685 3.504322,-2.505589 7.387233,-4.572199 11.31395,-6.1954505 6.899131,-2.8485121 14.286364,-4.3356583 21.601632,-4.4411006 7.312143,-0.1386079 14.592993,1.1867756 21.301264,3.740862 6.589371,2.5096571 12.915923,6.1629111 18.410215,10.8793521 5.50053,4.696727 10.17817,10.415655 13.61053,16.722493 3.62635,6.63349 6.11378,14.051699 7.03055,21.625413 0.10638,0.867631 0.2284,1.691146 0.30037,2.459281 0.0876,0.766883 0.19085,1.472754 0.29411,2.101028 0.1627,1.258114 0.38485,2.204593 0.66645,2.687063 0.28472,0.486224 0.51313,0.267517 0.69773,-0.46088 0.0907,-0.363888 0.17209,-0.854805 0.24092,-1.446471 0.0344,-0.295678 0.0657,-0.616698 0.0938,-0.959308 0.009,-0.342922 0.0188,-0.706809 0.0281,-1.088216 0.0782,-3.529666 -0.27846,-7.276473 -1.29535,-11.491357 -0.75405,-3.213963 -1.83038,-6.355648 -3.11946,-9.410978 -1.29848,-3.049385 -2.82223,-6.01867 -4.62446,-8.818685 C 115.39468,26.18901 110.92667,21.108371 105.71713,16.905375 103.11705,14.79809 100.35738,12.878223 97.450671,11.203033 94.537706,9.538793 91.490198,8.1007707 88.351951,6.9027304 85.216836,5.6909241 81.969082,4.7735435 78.680654,4.0958326 75.392223,3.4193732 72.047475,2.9710084 68.702726,2.8345903 l -1.0951,-0.05851 -1.10136,-0.012826 c -0.732152,-0.00496 -1.470561,-0.02128 -2.208972,-0.014076 -1.473693,0.065703 -2.959899,0.081348 -4.436722,0.2515609 -2.963026,0.2437381 -5.907282,0.7928526 -8.7608,1.5597352 -9.965412,2.7261753 -19.220573,7.8984896 -26.742347,14.9227746 -3.760887,3.512144 -7.130667,7.452626 -9.938504,11.776707 l -1.047228,1.624816 -0.974953,1.670186 -0.484972,0.836655 c -0.156443,0.28191 -0.300997,0.570077 -0.451495,0.85543 l -0.891099,1.717743 c -0.29161,0.575396 -0.54755,1.168316 -0.8213257,1.752472 -0.2618854,0.589792 -0.5544334,1.166439 -0.7840917,1.769996 -0.478089,1.199292 -0.9855901,2.388256 -1.3854581,3.617585 -1.7042891,4.876012 -2.8416287,9.963847 -3.2921841,15.110819 -0.4621325,5.141964 -0.341671,10.3318 0.4314698,15.459059 0.7906619,5.120377 2.1977095,10.156274 4.1914176,14.951247 2.0312552,4.778082 4.6241412,9.319929 7.7367282,13.475996 4.27308,5.67669 9.485757,10.63029 15.358623,14.63774 5.897898,3.96958 12.455982,6.98518 19.342598,8.80898 6.892876,1.80003 14.061087,2.47556 21.132306,1.90078 7.083734,-0.51626 14.07673,-2.32568 20.559722,-5.19922 9.665051,-4.29248 18.350771,-11.13686 24.386331,-19.3548 1.5394,-2.02687 2.85978,-4.17202 4.08003,-6.313098 0.29725,-0.539736 0.57259,-1.090726 0.85418,-1.632953 0.26908,-0.547869 0.56633,-1.076642 0.80412,-1.634834 0.24405,-0.55224 0.48809,-1.102291 0.73216,-1.64953 0.11888,-0.274715 0.24092,-0.545358 0.35355,-0.821323 0.10325,-0.278156 0.20964,-0.555372 0.31602,-0.832277 1.69897,-4.414195 2.70332,-8.845283 3.06002,-13.012296 0.0282,-0.296616 0.0751,-0.629212 0.1189,-0.988092 0.0407,-0.359506 0.0844,-0.74467 0.12827,-1.142034 0.05,-0.395801 0.10015,-0.803802 0.1502,-1.210244 0.025,-0.203061 0.05,-0.405499 0.0751,-0.606057 0.0157,-0.201813 0.0313,-0.401122 0.0469,-0.596987 0.18774,-2.152968 0.2941,-4.600359 0.16896,-6.351893 -0.13455,-1.754039 -0.37547,-2.798765 -0.82915,-2.200213 -0.2378,0.313511 -0.40675,0.902674 -0.5319,1.673938 -0.0626,0.385476 -0.10951,0.816632 -0.15957,1.282207 -0.0625,0.464635 -0.1189,0.963999 -0.17209,1.486521 -0.0532,0.522205 -0.0876,1.069441 -0.15019,1.625439 -0.0657,0.555999 -0.13454,1.123261 -0.20025,1.690836 -0.10951,1.138904 -0.32541,2.263729 -0.49749,3.30157 -1.7678,9.459475 -5.95421,18.45087 -12.00856,25.91102 -0.36295,0.4784 -0.76343,0.92613 -1.15767,1.37982 -0.39423,0.45181 -0.78534,0.90893 -1.18584,1.35511 l -1.24528,1.30129 -0.62265,0.64924 -0.65393,0.6217 -1.30472,1.23809 c -0.44431,0.40393 -0.90738,0.78785 -1.36106,1.18177 -0.89486,0.80067 -1.85855,1.51844 -2.80033,2.25967 -3.826608,2.89981 -8.028666,5.29028 -12.434097,7.18604 -4.417945,1.8792 -9.070557,3.17987 -13.798262,3.94018 -0.588225,0.11419 -1.185836,0.16677 -1.78032,0.24467 l -1.78345,0.21214 -1.789704,0.12766 c -0.597612,0.0413 -1.192095,0.0926 -1.789707,0.0932 -1.195223,0.0194 -2.390449,0.0719 -3.585671,0.0113 l -1.789708,-0.056 -1.789706,-0.14236 c -2.38419,-0.17929 -4.746477,-0.57197 -7.093119,-1.02659 -2.331,-0.52908 -4.655743,-1.11512 -6.90852,-1.9136 -2.274679,-0.74405 -4.468009,-1.70398 -6.633177,-2.71147 -2.133882,-1.0707 -4.242731,-2.20241 -6.235815,-3.51716 -0.384849,-0.2453 -0.779085,-0.49622 -1.179579,-0.75311 -0.394236,-0.27221 -0.794729,-0.55068 -1.20461,-0.83479 -0.406751,-0.28753 -0.826018,-0.57663 -1.242155,-0.88577 -0.409882,-0.32134 -0.822891,-0.65206 -1.239028,-0.99467 -1.67394,-1.35823 -3.300946,-3.03717 -4.752736,-5.03401 7.086862,6.81778 14.574219,11.00357 21.77685,13.60209 11.827082,4.26869 24.924482,4.35974 36.707758,0.53377 11.780146,-3.85349 22.161706,-11.53453 29.273606,-21.585056 2.43113,-3.411699 4.28028,-6.994554 5.5193,-10.413462 1.2453,-3.420154 1.87732,-6.667594 2.05566,-9.436009 0.0657,-1.69146 -0.18146,-2.11323 -0.76969,-1.140781 -0.15331,0.255002 -0.30662,0.576648 -0.45681,0.951173 -0.1627,0.370769 -0.33479,0.791913 -0.49749,1.253421 -0.16896,0.460567 -0.31915,0.965252 -0.49749,1.488396 -0.18461,0.520016 -0.3692,1.066941 -0.55068,1.627946 -0.83228,2.451147 -1.79596,4.871317 -2.99119,7.180728 -1.17332,2.316918 -2.48745,4.572827 -3.99868,6.694189 l -0.55381,0.804118 -0.59135,0.776897 c -0.39737,0.513757 -0.77596,1.04441 -1.1921,1.54535 l -1.25467,1.49621 c -0.41301,0.50282 -0.87294,0.96339 -1.30786,1.44742 l -0.6602,0.71838 c -0.22527,0.23436 -0.45993,0.45869 -0.69147,0.68866 -0.46307,0.45432 -0.91675,0.92302 -1.39234,1.36576 l -1.44553,1.30691 c -0.2378,0.22216 -0.48498,0.43241 -0.73842,0.63547 l -0.75093,0.61921 c -7.790878,6.39669 -17.531013,10.56747 -27.684157,11.71012 -2.537502,0.26471 -5.093777,0.43085 -7.646929,0.33823 -1.279701,0.003 -2.550016,-0.12891 -3.826589,-0.21276 -0.63516,-0.0563 -1.267188,-0.15019 -1.902347,-0.22402 l -0.951172,-0.11828 c -0.319144,-0.042 -0.632031,-0.10668 -0.944915,-0.15894 l -1.88983,-0.33291 -1.867929,-0.42584 c -0.312886,-0.0732 -0.625771,-0.13798 -0.935528,-0.21871 l -0.919885,-0.26031 c -0.613255,-0.17866 -1.235899,-0.33605 -1.842898,-0.53285 -2.434251,-0.77815 -4.815313,-1.71743 -7.124409,-2.8044 C 37.091893,112.51643 31.02504,107.8707 26.106474,102.23625 21.184764,96.60302 17.427006,89.962645 15.153577,82.846999 12.868573,75.733541 12.089799,68.16108 12.804118,60.748503 c 0.704932,-7.416646 2.94269,-14.672777 6.525232,-21.183307 2.071304,-3.733665 4.602549,-7.208574 7.553063,-10.347443 2.947383,-3.138872 6.360968,-5.889137 10.115597,-8.218572 -0.469329,0.467452 -0.919884,0.881712 -1.351666,1.257175 -0.438042,0.371082 -0.82602,0.747797 -1.223383,1.073198 -0.391108,0.33385 -0.779085,0.629839 -1.142034,0.933964 -0.362947,0.307254 -0.71338,0.605434 -1.060682,0.900486 -3.45426,2.929861 -6.482994,6.35377 -9.086204,10.064283 -0.337916,0.454622 -0.62577,0.945854 -0.938657,1.41706 -0.30037,0.480905 -0.635158,0.942098 -0.907369,1.438648 -0.566323,0.982774 -1.154547,1.952722 -1.652036,2.972415 -1.07007,2.001844 -1.933633,4.104124 -2.738064,6.222047 -1.516557,4.271517 -2.525926,8.726385 -2.913278,13.235067 -0.371083,4.508686 -0.189296,9.057419 0.568199,13.49539 1.255298,7.224219 3.925466,14.195002 7.867826,20.371678 3.936103,6.177938 9.142522,11.556758 15.218766,15.620828 2.496828,1.65579 5.125068,3.0788 7.831529,4.26151 2.709591,1.18052 5.50366,2.13732 8.347793,2.80063 2.844132,0.67522 5.72581,1.10763 8.610615,1.31194 2.887937,0.18554 5.775874,0.1117 8.629391,-0.15801 2.859774,-0.25907 5.675746,-0.81163 8.426012,-1.54753 2.747138,-0.74874 5.441084,-1.6777 8.019264,-2.87323 5.159487,-2.36761 9.965415,-5.50523 14.145578,-9.38532 3.12886,-2.83788 5.63195,-6.067179 7.55619,-9.318691 1.92425,-3.257764 3.25088,-6.560272 4.06751,-9.666916 0.25657,-0.946793 0.3254,-1.711484 0.33792,-2.246207 0.009,-0.536601 -0.0938,-0.865754 -0.25657,-0.98027 -0.3035,-0.219021 -0.86356,0.400179 -1.46117,1.910167 -1.41425,3.424534 -2.8723,5.388518 -4.0769,6.744877 -0.6289,0.668015 -1.17646,1.20336 -1.76781,1.631389 -0.28785,0.219335 -0.57257,0.422395 -0.85417,0.619203 l -0.42553,0.29161 c -0.14705,0.09042 -0.29724,0.181154 -0.44743,0.273145 -0.32853,0.198688 -0.70086,0.531904 -1.09823,0.95712 -0.39423,0.426777 -0.86669,0.903923 -1.32351,1.451162 -0.93553,1.072889 -1.996214,2.277185 -2.997448,3.278731 -3.732728,3.71678 -8.156935,6.80965 -13.044209,8.96543 -4.890406,2.13952 -10.209463,3.37385 -15.616128,3.53655 -2.806586,0.0741 -5.735198,-0.0122 -8.541784,-0.32353 -1.846024,-0.17615 -3.663891,-0.53564 -5.472372,-0.93177 -0.450555,-0.10701 -0.894853,-0.23811 -1.342279,-0.3545 -0.447426,-0.12734 -0.901112,-0.22027 -1.33915,-0.37639 -0.879209,-0.29506 -1.774062,-0.54443 -2.634499,-0.89768 -3.473032,-1.30286 -6.814652,-3.01247 -9.871546,-5.15479 -3.066282,-2.12575 -5.897898,-4.61038 -8.347793,-7.440117 -2.462412,-2.814403 -4.602551,-5.91886 -6.282746,-9.259227 -2.60321,-5.099412 -4.202056,-10.708828 -4.884147,-16.326693 -0.76657,-6.141322 -0.316015,-12.459424 1.404857,-18.41458 1.711485,-5.960786 4.696416,-11.58272 8.73577,-16.353287 6.392256,-7.529597 15.153059,-13.008852 24.686689,-15.24223 3.072538,-0.734655 6.342193,-1.161745 9.33651,-1.111371 5.813419,0.06289 11.767633,0.940848 17.352647,2.951452 5.575624,1.993708 10.747626,5.176381 14.668079,9.243897 0.290989,0.288794 0.628906,0.622018 0.969954,0.959935 0.34417,0.334785 0.707114,0.658622 1.032516,0.945539 0.544429,0.520016 1.101359,1.052235 1.639529,1.566307 0.51626,0.537851 1.0294,1.044099 1.50499,1.495905 0.90424,0.940223 1.724,1.612614 2.24026,1.740586 0.27847,0.05945 0.40049,-0.05162 0.40049,-0.295992 -0.003,-0.241859 -0.11264,-0.6289 -0.3473,-1.076013 -0.22528,-0.45306 -0.53817,-0.99435 -0.89798,-1.583515 -0.38485,-0.566949 -0.81976,-1.17645 -1.2578,-1.793148 -0.26283,-0.352622 -0.54129,-0.693356 -0.81664,-1.046603 -0.28473,-0.346365 -0.55693,-0.716195 -0.89172,-1.050671 -1.739656,-1.878878 -3.6639,-3.590365 -5.707045,-5.166682 -2.046276,-1.565994 -4.217702,-3.002453 -6.526799,-4.202056 -2.305969,-1.211181 -4.718318,-2.240262 -7.218275,-3.06847 -2.496828,-0.830713 -5.09378,-1.402981 -7.728279,-1.788143 -0.610128,-0.07352 -1.213996,-0.188983 -1.827251,-0.231535 l -1.83664,-0.156131 c -0.613256,-0.04725 -1.229641,-0.046 -1.846027,-0.07321 l -0.923012,-0.03192 -0.923015,0.01846 c -2.465539,6.35e-4 -4.921692,0.252813 -7.349686,0.642981 -2.434251,0.376402 -4.824698,0.9931 -7.165083,1.751848 l -0.876082,0.290358 c -0.294111,0.0923 -0.585096,0.192737 -0.869821,0.31007 l -1.724001,0.665821 c -1.12326,0.499992 -2.265292,0.969946 -3.354135,1.547533 -8.813991,4.422953 -16.27006,11.507626 -21.238687,20.0541 -3.254012,5.564987 -5.372248,11.840223 -6.157591,18.331352 -0.775956,6.496759 -0.250309,13.185943 1.595716,19.502795 1.839769,6.321545 4.999915,12.275136 9.214486,17.372674 4.202057,5.105991 9.467924,9.338391 15.334532,12.355551 0.66019,0.31569 1.451791,0.71807 2.143269,1.06913 0.694605,0.3448 1.264056,0.69741 1.439274,1.01312 -1.50811,-0.3154 -3.432358,-1.19584 -5.190775,-2.22462 -5.41918,-3.07254 -10.278298,-7.15194 -14.251948,-11.969446 -3.979906,-4.810932 -7.055574,-10.370915 -9.00798,-16.300098 -1.899216,-5.77556 -2.782493,-11.896545 -2.55127,-18.003761 0.239044,-6.099395 1.553164,-12.153735 3.912322,-17.796003 2.362288,-5.641957 5.78213,-10.843372 9.999829,-15.295422 4.2177,-4.452364 9.245775,-8.146294 14.774466,-10.823971 6.010537,-2.909212 12.599911,-4.609746 19.26125,-4.962994 6.667594,-0.361383 13.375865,0.587287 19.592908,2.817224 6.217038,2.218985 11.930333,5.706411 16.67994,10.121227 4.75588,4.408876 8.54179,9.738571 11.0699,15.484093 0.4975,1.066001 0.91364,2.155784 1.37671,3.228043 0.21902,0.540978 0.41301,1.093848 0.63203,1.639833 0.10951,0.273462 0.21589,0.54755 0.3254,0.822891 0.097,0.279405 0.19399,0.559752 0.29411,0.841349 0.15645,0.443358 0.30663,0.852613 0.45056,1.224636 0.14393,0.371394 0.24718,0.716507 0.35982,1.013123 0.22215,0.596359 0.41301,1.025014 0.56007,1.252795 0.29723,0.454622 0.42551,0.109196 0.2816,-1.341968 -0.0407,-0.466512 -0.0751,-0.865753 -0.10325,-1.199604 -0.0375,-0.331972 -0.0532,-0.60199 -0.0532,-0.810688 0,-0.417701 0.0688,-0.591038 0.21589,-0.531903 0.14393,0.05914 0.36295,0.350431 0.66645,0.86106 0.30662,0.508126 0.62265,1.258427 1.04504,2.208973 0.20025,0.434598 0.36294,0.790665 0.52565,1.063814 0.1627,0.272834 0.3254,0.464008 0.47871,0.577897 0.3035,0.228094 0.57883,0.148309 0.78535,-0.204313 0.20024,-0.350746 0.3692,-0.983712 0.37545,-1.834763 0,-0.424899 -0.0281,-0.907053 -0.0876,-1.440211 -0.0281,-0.266578 -0.0657,-0.545987 -0.11264,-0.837283 -0.05,-0.28942 -0.12515,-0.586036 -0.20025,-0.895793 -0.66957,-2.853518 -1.56755,-5.607851 -2.66265,-8.293037 -1.09821,-2.68237 -2.37479,-5.316867 -3.94235,-7.843108 -3.10691,-5.055607 -7.17129,-9.89063 -12.65306,-14.00195 C 94.772367,14.093792 88.13606,10.790032 81.409015,8.7287403 74.954183,6.707811 67.945542,5.9606401 60.861809,6.5069386 53.774946,7.0460407 46.616119,9.0610251 39.995457,12.453958 c -3.128859,1.605729 -6.082501,3.422344 -8.864056,5.426691 -0.685219,0.515009 -1.386084,1.008744 -2.055659,1.538772 -0.663318,0.537537 -1.323506,1.073511 -1.986825,1.608546 -0.635158,0.563819 -1.273444,1.126076 -1.908602,1.687392 -0.632029,0.565698 -1.226512,1.170193 -1.839769,1.753725 -3.764016,4.384468 -7.193869,9.281444 -9.779557,14.593306" />
  </g>
</g><g id="164061404294216043" featurekey="nameFeature-0" fill="#000"><text x="222.5" y="50%" dominant-baseline="middle" text-anchor="left" class="mytextnew164061404294216043" style="font-size:48px;fill:#000;">showmovie</text><text x="132.5" y="180.25" dominant-baseline="top" text-anchor="middle" class="mytextnew2164061404294216043" style="font-size:72px;fill:#000;">S</text></g></svg>